<?xml version="1.0" encoding="UTF-8"?>
<svg xmlns="http://www.w3.org/2000/svg" version="1.1" viewBox="0 0 2645 960">
  <defs>
    <style>
      .cls-1 {
        fill: #bcd6e3;
      }

      .cls-2 {
        fill: #f05929;
      }
    </style>
  </defs>
  <!-- Generator: Adobe Illustrator 28.7.7, SVG Export Plug-In . SVG Version: 1.2.0 Build 194)  -->
  <g>
    <g id="Layer_1">
      <path class="cls-1" d="M2207.7,959.7c-136.7,0-247.2-43.4-331.5-130.3-84.3-86.9-126.4-203.4-126.4-349.6s41.3-264.9,123.8-350.9C1956.2,43,2067.5,0,2207.7,0s209.8,30.1,288.9,90.3c80.8,61.1,129.4,147.5,145.8,259.3h-220.6c-13.8-51.6-39.6-91.2-77.4-118.7-37-28.4-82.6-42.6-136.7-42.6s-131.1,25.4-171.6,76.1c-39.6,50.7-59.3,122.5-59.3,215.4s19.8,164.7,59.3,215.4c40.4,50.7,97.6,76.1,171.6,76.1s104.9-16.3,144.5-49c39.6-32.7,64.5-78.3,74.8-136.7h218c-13.8,118.7-60.6,210.7-140.6,276-80.8,65.4-179.7,98-296.7,98Z"/>
      <path class="cls-1" d="M1699.7,20.6v194.8h-456.6v166.4h421.8v184.5h-421.8v372.8h-218V20.6h674.6Z"/>
      <path class="cls-1" d="M902.6,21H227.6v533.4c41.9-25.2,149.4-66.8,228-83.1V197.7h447V21Z"/>
      <path class="cls-1" d="M455.6,551.1c-82.6,20.4-167.3,70.4-228,118.1v268.7h717.4v-184.9h-489.4v-202Z"/>
      <path class="cls-2" d="M868.8,378.9C405.1,393.2,66.4,691.6,0,890.3c94-147,396.1-412.1,873.7-412.1l-4.9-99.3Z"/>
    </g>
  </g>
</svg>